<?xml version="1.0" encoding="UTF-8" standalone="no"?>
<svg width="1222px" height="309px" viewBox="0 0 1222 309" version="1.1" xmlns="http://www.w3.org/2000/svg" xmlns:xlink="http://www.w3.org/1999/xlink" xmlns:sketch="http://www.bohemiancoding.com/sketch/ns">
    <!-- Generator: Sketch 3.4.4 (17249) - http://www.bohemiancoding.com/sketch -->
    <title>devices</title>
    <desc>Created with Sketch.</desc>
    <defs>
        <path id="path-1" d="M0,0.544333333 L127.851772,0.544333333 L127.851772,230 L0,230"></path>
    </defs>
    <g id="Page-1" stroke="none" stroke-width="1" fill="darkgray" fill-rule="evenodd" sketch:type="MSPage">
        <g id="devices" sketch:type="MSArtboardGroup">
            <g id="Group" sketch:type="MSLayerGroup" transform="translate(2.000000, 3.000000)">
                <path d="M950.147244,49.1332467 C950.142494,46.5294504 949.203987,43.6752529 947.908316,41.3755152 C944.686236,35.6558239 939.281272,33.8851294 932.873208,33.8888949 C841.85514,33.9416109 750.837072,33.9246665 659.818054,33.9265492 C659.027733,33.9265492 658.235511,33.9434936 657.44614,33.9783239 C648.855192,34.3539257 642.486074,40.8427066 642.484174,49.3940029 C642.464226,116.2982 642.447128,183.202398 642.567766,250.106595 C642.572516,252.79229 643.484425,255.74533 644.819043,258.103432 C647.934733,263.607552 653.174414,265.600407 659.403895,265.592876 C687.737684,265.554281 716.072422,265.575932 744.40716,265.575932 L747.402213,265.575932 C746.141688,272.562691 744.922959,279.3207 743.679532,286.208617 L740.87921,286.208617 C733.993344,286.209558 727.107477,286.178494 720.22161,286.225562 C717.144866,286.246271 715.150063,288.131812 715.063622,290.900345 C714.974331,293.785608 716.964383,295.871657 720.02403,296.083463 C720.496133,296.115469 720.972986,296.092876 721.447939,296.092876 C771.389233,296.092876 821.331477,296.092876 871.272771,296.08817 C872.060243,296.087228 872.868613,296.109821 873.633287,295.955438 C876.258826,295.422629 877.839469,293.284805 877.639039,290.65371 C877.450958,288.177938 875.587243,286.320639 872.948405,286.24533 C869.4689,286.146487 865.984646,286.2105 862.502291,286.209558 C858.07763,286.206734 853.653919,286.208617 849.030728,286.208617 C847.791101,279.311287 846.576172,272.554219 845.322296,265.575932 L848.337297,265.575932 C876.354767,265.575932 904.373186,265.576873 932.390656,265.572166 C933.577088,265.572166 934.76827,265.579697 935.949003,265.483679 C944.033651,264.82567 950.221337,258.357599 950.225136,250.31746 C950.254583,183.256055 950.266932,116.194651 950.147244,49.1332467 L950.147244,49.1332467 Z M796.211219,254.744666 C789.587527,254.659003 784.190162,249.171827 784.289902,242.623741 C784.389643,236.012583 789.836402,230.739095 796.495241,230.804991 C803.138882,230.869944 808.472603,236.290284 808.40136,242.904265 C808.331067,249.484358 802.828263,254.829389 796.211219,254.744666 L796.211219,254.744666 Z M928.651827,218.581457 L664.063183,218.581457 L664.063183,57.936827 L928.651827,57.936827 L928.651827,218.581457 L928.651827,218.581457 Z" id="Imported-Layers" sketch:type="MSShapeGroup"></path>
                <path d="M499.310194,35.2448904 C499.310194,28.8426127 495.900913,25.4166667 489.5374,25.4166667 L310.12668,25.4166667 C303.776804,25.4166667 300.376136,28.8506156 300.376136,35.2667163 C300.375419,116.011078 300.375419,196.756167 300.376136,277.501255 C300.376136,283.903533 303.783264,287.328024 310.147495,287.328024 L489.379497,287.328024 C495.984889,287.328024 499.310194,283.970466 499.310194,277.297547 C499.310912,236.985751 499.310912,196.673955 499.310912,156.36216 C499.310912,115.989252 499.310912,75.617071 499.310194,35.2448904 L499.310194,35.2448904 Z M399.805842,27.0091159 C400.466166,27.9425389 401.158789,28.4947353 401.109982,28.9690859 C401.057587,29.4769029 400.319029,30.2619094 399.858955,30.2771876 C399.41539,30.2917382 398.639509,29.5205548 398.573477,29.018558 C398.511751,28.5420249 399.17997,27.9672749 399.805842,27.0091159 L399.805842,27.0091159 Z M399.902738,273.322197 C396.760457,273.381127 394.079686,270.705266 394.045952,267.473571 C394.010065,264.092732 396.582457,261.427056 399.866851,261.440879 C403.07301,261.454702 405.634636,264.074543 405.641096,267.34407 C405.646838,270.609959 403.10172,273.261812 399.902738,273.322197 L399.902738,273.322197 Z M479.855042,255.113537 L319.862869,255.113537 L319.862869,40.6554251 L479.855042,40.6554251 L479.855042,255.113537 L479.855042,255.113537 Z" id="Page-1" sketch:type="MSShapeGroup"></path>
                <path d="M149.892551,154.317722 C149.892551,116.941614 149.964898,79.5645677 149.820205,42.1893985 C149.796395,36.1297524 149.236853,29.9940908 148.176381,24.0329831 C145.985837,11.7203677 139.644981,5.23653697 127.736188,3.21415236 C119.631541,1.83742928 111.417001,0.689690818 103.220777,0.425044664 C87.373217,-0.085478413 71.5036781,-0.0169707207 55.6442128,0.036521587 C44.5806836,0.0740600485 33.5666064,1.01909082 22.656928,3.03866005 C10.6510619,5.25999851 4.28548025,11.2699062 1.83302339,23.5280908 C0.782624573,28.7769062 0.0893796712,34.2059062 0.0811376578,39.5541985 C-0.0278400744,117.12086 -0.00860870992,194.68846 0.0326013569,272.25606 C0.0362644739,278.925706 2.03266327,285.042599 6.16282774,290.276399 C13.3874103,299.430152 23.2283743,303.471168 34.2854931,303.63446 C59.6122844,304.007968 84.9473177,303.811829 110.279604,303.799629 C113.397832,303.797752 116.542618,303.712352 119.62971,303.303183 C127.510906,302.259614 134.684205,299.414199 140.59556,293.780614 C147.273423,287.416906 149.921856,279.398691 149.910867,270.199891 C149.86691,231.571875 149.892551,192.944799 149.892551,154.317722 L149.892551,154.317722 Z M60.8824702,9.52718313 C65.372536,9.55252159 69.8644332,9.5375062 74.3554147,9.53656774 C76.5248958,9.53656774 78.6943769,9.54126005 80.8629422,9.54219851 C83.0324233,9.54313697 85.2019043,9.54032159 87.3713854,9.52718313 C88.6910233,9.51873697 89.9960088,9.64167543 89.9795247,11.3355985 C89.9648723,12.9478754 88.6717919,13.2791524 87.3668065,13.2819677 C78.5368629,13.2941677 69.7069192,13.2913524 60.8769756,13.2857216 C59.5500114,13.2847831 58.2743309,12.9131524 58.2596784,11.336537 C58.2441102,9.66982928 59.5619165,9.52061389 60.8824702,9.52718313 L60.8824702,9.52718313 Z M91.7314105,289.868168 C91.6682217,292.931306 90.8989671,293.717737 87.8768955,293.728999 C83.5361018,293.744952 79.1953081,293.732752 74.8545144,293.732752 C72.6841176,293.732752 70.5137207,293.737445 68.3433239,293.739322 C66.172927,293.74026 64.0025302,293.738383 61.8321333,293.725245 C59.0399224,293.707414 58.2019843,292.804614 58.16169,289.907583 C58.1516165,289.205614 58.1525322,288.502706 58.1607743,287.800737 C58.1964897,284.906522 59.0390066,283.914568 61.7881759,283.900491 C70.545773,283.85826 79.3033701,283.862014 88.061883,283.897675 C90.8458519,283.908937 91.670969,284.849275 91.7314105,287.761322 C91.7460629,288.463291 91.7460629,289.166199 91.7314105,289.868168 L91.7314105,289.868168 Z M138.027715,263.263722 L10.5915363,263.263722 L10.5915363,33.9159216 L138.027715,33.9159216 L138.027715,263.263722 L138.027715,263.263722 Z" id="Page-1" sketch:type="MSShapeGroup"></path>
                <g id="Page-1" transform="translate(1088.404110, 74.000000)">
                    <mask id="mask-2" sketch:name="Clip 2" fill="white">
                        <use xlink:href="#path-1"></use>
                    </mask>
                    <g id="Clip-2"></g>
                    <path d="M2.03512376,114.648739 C2.03640099,98.4644056 2.06194554,82.2800722 2.02362871,66.0957389 C2.00830198,59.3529056 3.73255941,53.1160722 9.41366832,49.2316278 C20.438698,41.6952944 23.4976584,30.4789611 24.583302,18.3157944 C25.9346089,3.16518333 26.6983911,1.49257222 41.7990545,0.851127778 C57.0670347,0.202016667 72.4231436,0.66585 87.6975099,1.47340556 C96.907599,1.96151667 98.124797,4.34968333 99.1082624,13.3707944 C99.8656584,20.3142389 100.665203,27.4467944 102.95655,33.9634611 C104.623332,38.7065722 107.956896,43.6732944 111.962282,46.60835 C119.670351,52.2561278 122.908124,59.2059611 122.577322,68.4276833 C122.431718,72.4680167 121.492955,76.6080167 127.0655,78.8939611 C130.565104,80.3289056 130.876748,96.2359611 127.386084,98.4465167 C120.408589,99.0189611 123.228708,111.530961 123.094599,118.321072 C122.855757,130.495739 123.134193,142.680628 123.099708,154.860406 C123.090767,158.022906 122.582431,161.18285 122.551777,164.34535 C122.472589,172.382572 119.490262,178.701183 112.519153,183.11335 C103.955342,188.533683 101.835144,197.550961 100.145371,206.641072 C99.4863218,210.186906 99.2653614,213.826017 99.0137475,217.434461 C98.4504901,225.508739 96.6227772,227.914794 88.4370248,228.833517 C81.057203,229.660239 73.5879752,229.934961 66.1557871,229.977128 C57.0159455,230.029517 47.8301238,230.060183 38.7413713,229.243683 C26.6434703,228.15885 25.744302,226.638294 24.712302,214.808628 C24.2333416,209.330794 23.9293614,203.483683 21.7580743,198.600017 C19.1780743,192.79635 15.4217475,187.052739 10.8173416,182.730017 C5.09025248,177.354406 1.94827228,171.627406 2.00063861,163.840628 C2.1104802,147.444183 2.03384653,131.046461 2.03512376,114.648739 M110.137124,115.750183 C110.137124,99.1646278 110.193322,82.5790722 110.110302,65.9935167 C110.077094,59.4001833 107.438342,56.6452944 100.831243,56.6197389 C75.1142624,56.5200722 49.396005,56.5277389 23.6777475,56.6120722 C16.6747079,56.6350722 14.0806584,59.3094611 14.0691634,66.29635 C14.0206287,99.0419611 14.0219059,131.78885 14.0704406,164.534461 C14.0806584,171.654239 16.5073911,174.083294 23.6624208,174.099906 C49.1673812,174.159961 74.6723416,174.15485 100.178579,174.105017 C107.73849,174.090961 110.096252,171.725794 110.121797,164.231628 C110.177995,148.071572 110.139678,131.911517 110.137124,115.750183" id="Fill-1" sketch:type="MSShapeGroup" mask="url(#mask-2)"></path>
                </g>
            </g>
        </g>
    </g>
</svg>